<?xml version="1.0" standalone="no"?>
<!DOCTYPE svg PUBLIC "-//W3C//DTD SVG 20010904//EN"
 "http://www.w3.org/TR/2001/REC-SVG-20010904/DTD/svg10.dtd">
<svg version="1.0" xmlns="http://www.w3.org/2000/svg"
viewBox="0 0 256 256" width="26" height="26"
 preserveAspectRatio="xMidYMid meet">
<metadata>
Created by potrace 1.16, written by Peter Selinger 2001-2019
</metadata>
<g transform="translate(0.000000,238.000000) scale(0.100000,-0.100000)"
fill="#fff" stroke="none">
<path d="M22 2364 c-28 -20 -30 -77 -3 -100 10 -9 77 -42 150 -73 72 -32 133
-60 136 -63 3 -3 75 -341 159 -751 108 -522 159 -753 172 -771 42 -58 28 -57
872 -54 753 3 774 4 788 22 8 11 14 34 14 52 0 67 39 64 -806 64 l-761 0 -13
73 c-7 39 -15 78 -17 85 -4 9 158 12 788 12 779 0 795 0 827 20 18 11 39 35
46 53 20 47 186 860 186 908 0 22 -7 53 -15 69 -33 63 23 60 -1070 60 -547 0
-995 2 -995 4 0 2 -9 47 -20 100 -22 108 -40 150 -73 168 -49 27 -310 138
-326 138 -9 0 -27 -7 -39 -16z m2402 -550 c-4 -14 -43 -204 -88 -422 l-82
-397 -787 -3 c-433 -1 -787 2 -787 6 0 5 -38 194 -85 421 -47 226 -85 414 -85
416 0 3 432 5 960 5 l960 0 -6 -26z"/>
<path d="M1000 1643 c-53 -20 -66 -75 -27 -111 23 -22 24 -22 494 -22 443 0
472 1 494 18 27 23 30 75 5 100 -15 15 -59 17 -484 19 -257 1 -474 -1 -482 -4z"/>
<path d="M1020 1300 c-26 -26 -26 -72 1 -96 20 -18 42 -19 450 -19 465 0 450
-2 464 55 4 18 0 34 -15 53 l-21 27 -430 0 c-416 0 -430 -1 -449 -20z"/>
<path d="M973 436 c-161 -75 -171 -312 -17 -402 154 -90 345 19 344 198 -1
171 -171 276 -327 204z m149 -127 c11 -6 26 -26 34 -44 26 -62 -18 -125 -86
-125 -43 0 -90 47 -90 90 0 65 82 111 142 79z"/>
<path d="M1763 436 c-160 -75 -172 -311 -19 -401 156 -91 347 17 346 197 -1
171 -171 276 -327 204z m149 -127 c11 -6 26 -26 34 -44 26 -62 -18 -125 -86
-125 -43 0 -90 47 -90 90 0 65 82 111 142 79z"/>
</g>
</svg>
