<?xml version="1.0" standalone="no"?>
<!DOCTYPE svg PUBLIC "-//W3C//DTD SVG 20010904//EN"
 "http://www.w3.org/TR/2001/REC-SVG-20010904/DTD/svg10.dtd">
<svg version="1.0" xmlns="http://www.w3.org/2000/svg"
viewBox="0 0 256 256" width="28" height="28"
 preserveAspectRatio="xMidYMid meet">
<metadata>
Created by potrace 1.10, written by Peter Selinger 2001-2011
</metadata>
<g transform="translate(0.000000,238.000000) scale(0.100000,-0.100000)"
fill="#fff" stroke="#fff">
<path d="M20 2354 c-16 -18 -17 -71 -3 -85 5 -5 75 -38 154 -73 l143 -62 152
-740 c84 -406 160 -753 168 -771 31 -66 -8 -63 863 -61 l787 3 16 28 c13 24
13 30 0 55 l-16 27 -771 3 -772 2 -11 58 c-6 31 -15 72 -20 90 -5 17 -8 32 -7
32 1722 5 1593 3 1624 26 15 11 34 32 40 46 20 39 184 846 184 906 1 62 -16
92 -64 116 -32 14 -126 16 -1024 16 l-988 0 -22 107 c-12 59 -31 118 -41 132
-22 30 -309 161 -352 161 -15 0 -33 -7 -40 -16z m195 -85 c77 -33 148 -68 157
-77 10 -9 28 -64 42 -121 16 -68 32 -111 45 -125 l22 -21 1000 -5 1001 -5 24
-30 c28 -35 28 -38 9 -96 -8 -24 -48 -210 -90 -414 -42 -203 -80 -385 -86
-402 -21 -65 -4 -63 -539 -63 -267 0 -624 -3 -793 -7 l-309 -6 -15 -24 c-14
-21 -14 -31 1 -106 27 -136 -65 -121 814 -127 664 -4 757 -7 757 -20 0 -13
-92 -15 -755 -18 -415 -1 -765 0 -777 3 -34 8 -60 42 -72 94 -12 53 -60 283
-196 946 -53 259 -104 483 -113 500 -14 23 -45 41 -152 87 -143 62 -156 70
-146 87 11 18 24 14 171 -50z"/>
<path d="M486 1858 c-9 -12 -16 -29 -16 -38 0 -8 37 -197 82 -419 68 -332 87
-408 105 -427 l22 -24 789 0 789 0 22 24 c18 19 37 96 108 440 l86 417 -23 24
-23 25 -963 0 -963 0 -15 -22z m1950 -26 c-3 -4 -39 -174 -81 -378 -42 -203
-81 -390 -86 -417 l-11 -47 -794 0 c-767 0 -794 1 -794 19 0 18 -155 779 -166
814 -5 16 45 17 966 17 534 0 969 -4 966 -8z"/>
<path d="M977 1622 c-21 -23 -22 -66 -1 -86 14 -14 72 -16 493 -16 450 0 479
1 494 18 22 24 21 65 -1 85 -17 15 -66 17 -494 17 -447 0 -476 -1 -491 -18z
m948 -42 c0 -13 -59 -15 -457 -18 -378 -2 -458 0 -458 11 0 8 3 17 7 20 3 4
209 6 457 5 393 -3 451 -5 451 -18z"/>
<path d="M1022 1298 c-22 -28 -22 -55 -1 -81 l20 -27 428 0 c402 0 429 1 444
18 22 24 21 65 -1 85 -17 15 -63 17 -449 17 -332 0 -433 -3 -441 -12z m853
-48 c0 -13 -52 -15 -405 -15 -378 0 -405 1 -408 18 -3 16 20 17 405 15 355 -3
408 -5 408 -18z"/>
<path d="M1033 449 c-84 -15 -136 -60 -168 -143 -35 -91 3 -208 85 -262 52
-34 143 -43 204 -20 61 23 113 79 131 140 19 62 19 83 0 135 -38 109 -140 169
-252 150z m123 -58 c48 -22 77 -59 93 -118 34 -126 -90 -255 -213 -222 -116
31 -175 149 -127 254 43 95 148 131 247 86z"/>
<path d="M1014 351 c-75 -46 -96 -124 -51 -192 51 -77 143 -87 204 -23 70 75
45 187 -50 223 -41 16 -68 14 -103 -8z m106 -36 c103 -53 33 -214 -76 -178
-71 24 -90 116 -35 165 35 31 68 35 111 13z"/>
<path d="M1807 445 c-96 -25 -156 -98 -164 -198 -4 -54 -1 -69 24 -117 39 -74
91 -110 171 -117 81 -7 137 14 190 71 149 161 -8 416 -221 361z m161 -67 c129
-86 87 -284 -70 -328 -69 -20 -165 30 -199 104 -42 94 -8 190 86 241 45 24
133 16 183 -17z"/>
<path d="M1804 351 c-75 -46 -96 -125 -51 -192 62 -93 184 -84 232 17 31 66
-3 152 -71 180 -45 19 -73 18 -110 -5z m99 -32 c60 -31 76 -106 33 -152 -45
-49 -111 -46 -150 6 -59 80 29 191 117 146z"/>
</g>
</svg>
